<?xml version="1.0" encoding="UTF-8" standalone="no"?>
<!DOCTYPE svg PUBLIC "-//W3C//DTD SVG 1.1//EN"
 "http://www.w3.org/Graphics/SVG/1.1/DTD/svg11.dtd">
<!-- Generated by graphviz version 2.42.3 (0)
 -->
<!-- Title: dbSelect Pages: 1 -->
<svg width="298pt" height="35pt"
 viewBox="0.00 0.00 298.00 35.00" xmlns="http://www.w3.org/2000/svg" xmlns:xlink="http://www.w3.org/1999/xlink">
<g id="graph0" class="graph" transform="scale(1 1) rotate(0) translate(4 31)">
<title>dbSelect</title>
<polygon fill="white" stroke="transparent" points="-4,4 -4,-31 294,-31 294,4 -4,4"/>
<!-- Node1 -->
<g id="node1" class="node">
<title>Node1</title>
<g id="a_node1"><a xlink:title="Select data from an sqlite3 database.">
<polygon fill="#bfbfbf" stroke="black" points="214,-0.5 214,-26.5 290,-26.5 290,-0.5 214,-0.5"/>
<text text-anchor="middle" x="252" y="-9.7" font-family="SourceSansPro" font-size="16.00">dbSelect</text>
</a>
</g>
</g>
<!-- Node2 -->
<g id="node2" class="node">
<title>Node2</title>
<g id="a_node2"><a xlink:href="group__func.html#ga749a2b3d23cf2c52bd39b7827142c18c" target="_top" xlink:title="Mainmenu function Each open SQLite database is represented by a pointer to an instance of the opaque ...">
<polygon fill="white" stroke="black" points="87,-0.5 87,-26.5 178,-26.5 178,-0.5 87,-0.5"/>
<text text-anchor="middle" x="132.5" y="-9.7" font-family="SourceSansPro" font-size="16.00">mainmenu</text>
</a>
</g>
</g>
<!-- Node1&#45;&gt;Node2 -->
<g id="edge1" class="edge">
<title>Node1&#45;&gt;Node2</title>
<path fill="none" stroke="midnightblue" d="M203.77,-13.5C195.35,-13.5 186.6,-13.5 178.26,-13.5"/>
<polygon fill="midnightblue" stroke="midnightblue" points="203.82,-17 213.82,-13.5 203.82,-10 203.82,-17"/>
</g>
<!-- Node3 -->
<g id="node3" class="node">
<title>Node3</title>
<g id="a_node3"><a xlink:href="sqltest_8c.html#a3c04138a5bfe5d72780bb7e82a18e627" target="_top" xlink:title="Main program function.">
<polygon fill="white" stroke="black" points="0,-0.5 0,-26.5 51,-26.5 51,-0.5 0,-0.5"/>
<text text-anchor="middle" x="25.5" y="-9.7" font-family="SourceSansPro" font-size="16.00">main</text>
</a>
</g>
</g>
<!-- Node2&#45;&gt;Node3 -->
<g id="edge2" class="edge">
<title>Node2&#45;&gt;Node3</title>
<path fill="none" stroke="midnightblue" d="M76.81,-13.5C67.79,-13.5 58.85,-13.5 51.07,-13.5"/>
<polygon fill="midnightblue" stroke="midnightblue" points="76.97,-17 86.97,-13.5 76.97,-10 76.97,-17"/>
</g>
</g>
</svg>
